<svg width="260" height="16" viewBox="0 0 260 16" fill="none" xmlns="http://www.w3.org/2000/svg">
<g clip-path="url(#clip0_31_11)">
<path d="M206.8 7.30078L206.7 7.60078C206.8 7.40078 206.9 7.30078 206.8 7.30078ZM234.7 10.0008H234.6C234.4 10.4008 234.5 10.3008 234.7 10.0008ZM54.8001 4.20078L54.2001 3.80078C54.4001 4.20078 54.6001 4.30078 54.8001 4.20078ZM34.5001 9.60078L34.6001 9.90078C34.6001 9.70078 34.6001 9.60078 34.5001 9.60078ZM22.4001 10.8008C22.1001 10.7008 21.7001 10.7008 21.4001 10.7008C21.6001 10.8008 22.1001 10.8008 22.4001 10.8008ZM17.5001 5.00078C17.4001 5.10078 17.3001 5.10078 17.1001 5.20078C17.3001 5.10078 17.4001 5.00078 17.5001 5.00078ZM52.7001 9.80078L53.2001 10.7008C53.1001 10.4008 52.9001 10.1008 52.7001 9.80078ZM19.5001 11.6008C19.3001 11.4008 19.1001 11.4008 18.9001 11.3008C18.9001 11.5008 19.2001 11.6008 19.5001 11.6008ZM120.9 11.4008C120.8 11.5008 120.7 11.6008 120.7 11.7008C121 11.6008 121 11.5008 120.9 11.4008ZM80.9001 10.4008H80.8001C80.8001 10.4008 80.9001 10.5008 81.0001 10.5008L80.9001 10.4008ZM92.6001 10.4008L92.4001 10.6008C92.6001 10.5008 92.6001 10.5008 92.6001 10.4008ZM72.1001 11.3008C72.0001 11.4008 71.8001 11.5008 71.7001 11.6008L72.1001 11.3008Z" fill="#6CD5CB"/>
<path d="M260 5.99996C259 5.39996 255.3 4.79996 254.2 6.29996C254 6.19996 254.3 5.99996 254.4 5.89996C253.5 6.09996 252.2 5.99996 250.8 5.89996C249.4 5.79996 247.9 5.69996 246.6 5.89996C245.6 7.39996 242.7 5.29996 241.8 7.29996L242.3 6.89996C243.2 7.39996 241.1 8.29996 240.8 8.79996C240 7.59996 240.7 7.79996 239.8 6.79996L240.9 7.19995L240.6 6.19995C237.5 8.99995 234.4 5.29996 232.4 7.29996C232.5 7.19996 232.5 6.99996 232.6 6.89996C231.2 6.39996 230.3 7.69996 229.3 8.09996C229.2 7.59996 229.9 7.19996 230.4 6.79996C228 6.49996 224 7.99995 221.4 7.19995C220.5 7.89995 221.8 8.09995 220.8 8.69995C220 8.49995 219.4 7.99996 220.4 7.59996C218.1 6.39996 212.8 8.59996 209.3 7.39996C207.5 8.19996 208.6 8.49996 205.8 8.99996C206.5 8.49996 205.1 7.29996 206.8 7.29996L207 6.79996C204.2 6.69996 200.4 6.49996 198.9 7.99996C198.8 6.89996 198.4 7.79996 197.3 7.19995C196.9 7.29995 197.3 7.39996 197.5 7.39996C196.5 8.29996 195.9 7.29996 195.2 7.49996L195.5 7.29996L193.5 7.99996C193.2 7.79996 192.7 7.59996 192.6 7.29996V8.09996C191.5 8.09996 192.1 7.09996 190.7 7.29996L191 7.89996C190.1 7.49996 188.8 8.29996 188.6 7.39996C188.6 7.19996 188.7 7.29996 189 7.29996C187.7 6.09996 185.5 7.59996 183.9 6.99996L184.3 8.29996C182.7 8.69996 183.3 7.99996 183.4 7.59996C182.3 7.59996 182.1 7.19996 180.7 6.99996C180 7.29996 180.3 7.49996 180.1 7.79996L178.6 7.39996L179.6 6.69995C177.3 8.49995 174 6.29996 172.4 7.89996C171.6 7.49996 173.2 7.19996 172.7 6.89996C170.1 5.99996 166.7 7.89996 164.5 6.89996C160.9 5.89996 156.7 6.49996 152.7 5.79996L152.8 6.09996L149.9 5.69995C149.1 6.39995 147.2 5.99996 145.9 6.79996C146 6.49996 145.8 6.09996 146.1 5.89996C144.9 5.99996 143.5 6.29996 142.8 5.79996L143.2 5.49996C140.5 5.19996 136.8 4.99996 135.3 5.59996C134.4 5.59996 134.4 4.99996 134.2 4.59996C132.6 4.49996 131.6 4.79996 130.3 5.29996C130 5.09996 129.6 4.99995 129.3 4.69995L128.7 5.49996C128.1 5.39996 128.6 4.79996 128.1 4.59996C125.6 5.49996 122.8 4.49996 121.1 4.49996L121.3 4.89996C120.6 5.19996 119.2 4.59996 120.1 4.19996C116.7 3.59996 115 5.39996 110.5 4.99996C109.9 3.49996 106.4 5.29996 105.7 3.59996C103.8 3.99996 102.5 3.29996 101.2 4.19996C101.2 3.99996 101 3.99996 101.3 3.89996C100.5 3.29996 98.0001 3.69996 96.0001 4.09996L95.9001 3.59996C95.0001 4.79996 91.7001 4.49996 91.0001 5.59996C90.8001 5.39996 91.4001 5.09996 91.7001 4.89996C90.7001 3.79996 89.9001 5.39996 88.6001 5.09996C88.7001 4.79996 88.3001 4.49996 88.6001 4.29996C84.2001 3.09996 78.0001 4.99996 72.3001 4.19996C70.7001 4.19996 72.9001 5.39996 70.8001 5.29996C70.2001 4.69996 71.8001 4.19996 70.5001 3.89996C69.6001 4.59996 69.2001 4.39996 67.9001 4.39996C68.1001 3.99996 67.9001 3.79996 68.8001 3.49996C68.1001 2.99996 65.7001 4.39996 64.3001 3.49996C64.4001 3.79996 64.1001 3.99996 63.8001 4.19996C61.7001 5.19996 58.9001 3.29996 58.7001 3.79996C58.7001 3.79996 58.0001 3.99996 58.6001 4.09996C57.8001 4.09996 56.7001 3.89996 56.9001 3.39996C56.5001 3.69996 56.1001 4.19996 55.5001 4.19996L55.8001 3.59996C55.4001 3.69996 55.0001 4.09996 54.7001 4.19996L55.3001 4.59996C54.4001 4.09996 52.7001 5.39996 52.7001 4.19996H53.0001L51.3001 3.69996C50.6001 4.19996 50.0001 4.69996 48.8001 4.59996C48.3001 3.29996 45.9001 4.39996 44.5001 4.29996L44.6001 3.89996C43.5001 4.49996 40.6001 4.29996 41.1001 4.49996C40.0001 4.49996 38.5001 4.29996 39.1001 3.89996C38.3001 3.99996 36.4001 3.99996 35.9001 4.79996L34.1001 3.79996C33.1001 5.39996 30.5001 3.29996 30.5001 4.99996C29.5001 4.79996 29.7001 4.39996 29.0001 4.09996C27.6001 4.99996 26.2001 4.89996 24.8001 4.79996V4.59996C23.4001 4.49996 21.7001 5.39996 19.7001 5.59996L19.2001 4.39996C18.2001 4.59996 17.9001 5.59996 16.9001 5.39996C16.7001 5.19996 16.9001 5.09996 17.1001 5.09996C16.1001 5.39996 14.8001 5.19996 14.0001 4.89996C12.5001 5.89996 11.3001 5.59995 10.1001 6.69995C8.8001 5.69995 11.8001 6.09996 10.7001 5.09996C8.5001 4.69996 6.3001 5.49995 4.0001 6.19995C3.8001 5.99995 4.0001 5.79996 4.1001 5.49996C4.1001 5.49996 2.9001 6.39996 1.9001 7.29996C0.900097 8.29996 9.71556e-05 9.39996 0.500097 9.99996C9.71556e-05 10.9 -0.699903 11.4 1.4001 12C2.0001 11.5 3.9001 10.7 4.3001 11.6L4.4001 10.7C7.0001 10.1 4.8001 12.5 8.0001 12.3L7.3001 12C7.9001 11.9 8.4001 11.3 9.1001 11.5C9.3001 11.7 8.9001 11.9 8.6001 12.1C9.5001 11.6 10.3001 11.2 11.2001 10.7C11.3001 11.2 11.3001 11.5 10.8001 11.9C13.3001 11.7 10.2001 10.3 13.2001 10.5C13.8001 10.9 13.0001 11.1 12.7001 11.4C14.1001 12.1 15.0001 11.3 16.5001 10.8C16.6001 11.6 15.6001 11.5 16.8001 12C16.5001 11.6 16.3001 10.9 17.3001 10.8C16.9001 11.6 18.0001 11.2 18.9001 11.3C18.7001 11 18.8001 10.7 19.1001 10.5C19.5001 10.4 19.9001 10.6 20.5001 10.6L19.4001 9.89995C20.9001 9.09995 21.8001 10.2 23.0001 10.5C22.9001 10.6 22.7001 10.8 22.5001 10.8C23.7001 11.1 25.0001 11.7 26.6001 10.9L26.3001 11C29.2001 10.1 25.3001 9.69996 28.7001 8.79996C29.8001 8.89996 28.3001 11.4 30.8001 10.4C29.5001 9.79995 32.4001 8.69995 33.9001 8.39995L32.4001 9.99996C33.0001 9.99996 34.0001 9.49995 34.4001 9.69995L34.3001 9.39995C34.1001 8.09995 36.2001 9.49995 37.3001 8.69995C36.0001 10.5 35.9001 10.2 35.7001 11.9C36.7001 10.9 37.9001 9.99996 39.8001 10.1L38.3001 11.5C40.8001 11.7 43.8001 9.59996 45.9001 8.49996C45.4001 9.49996 46.2001 9.89995 45.3001 10.7L47.7001 10.4L47.0001 11.5C48.0001 10.3 49.1001 11.1 48.9001 9.59996C48.6001 9.79996 48.7001 9.99995 48.2001 9.89995C48.3001 9.49995 48.7001 8.49996 49.9001 8.59996C50.8001 8.89996 49.4001 9.19996 49.7001 9.59996C50.5001 8.99996 50.6001 9.89996 51.4001 9.49996L50.6001 8.89995C51.2001 7.99995 52.0001 8.79995 52.8001 8.39995C51.8001 8.79995 52.1001 9.29996 52.5001 9.79996L52.4001 9.69995C53.2001 9.59995 54.0001 8.99996 54.4001 9.49996L53.9001 10.7L54.8001 9.79996C55.1001 9.89996 55.4001 10.4 54.8001 10.6C57.6001 11.3 54.7001 8.09996 58.4001 9.09996C58.4001 9.59996 58.0001 9.89996 57.0001 9.59996C56.8001 10.3 57.1001 10.7 58.1001 11V11.1C60.0001 11.1 62.5001 11.1 63.7001 10.3C64.1001 10.6 63.7001 10.9 63.3001 11.2C65.4001 11.6 66.1001 10.5 68.3001 11.3L67.3001 10.9C68.7001 10.3 71.3001 10.1 72.6001 11L72.2001 11.3C73.5001 10.6 75.7001 11.9 76.2001 11.3C75.6001 10.9 76.2001 10.7 75.4001 10.3L78.8001 9.59996L79.0001 10.8L80.8001 10.4C80.4001 9.89995 83.2001 10.8 83.3001 9.69995C84.3001 10.1 82.9001 10.6 82.5001 11.1C83.5001 10.8 83.6001 11.3 84.6001 10.6L85.6001 11.7L88.2001 11C88.1001 11.1 88.2001 11.2 88.1001 11.3C89.3001 10.4 91.2001 11.9 92.7001 10.4C92.6001 10.5 92.6001 10.5 92.6001 10.6C93.5001 9.79996 95.5001 10.4 96.3001 10.6C97.7001 10.4 96.9001 9.59995 96.9001 9.19995C100.8 9.59995 99.6001 9.49996 102.9 8.29996C104.9 9.69996 100.5 10.4 103 11.3C103.4 10.7 105.1 10.2 107.1 9.99996C108.9 10.5 111.9 10.9 113.6 11.9L113.4 11L116 10.6L114.5 11.8C114.9 11.5 116.2 11 117.1 10.6C119.8 9.89996 118.5 12.5 120.6 11.3C120.7 11.4 120.7 11.5 120.8 11.6C121.5 11 123.2 11.3 125.2 11.1L124.5 12.2L123.2 11.9C123.9 13 125.3 11.8 126.6 11.9C127.9 11.6 127.3 10.6 128 10.3C128.5 10.4 129.2 10.1 129.6 10.4C130.7 10.8 129.7 11.7 129.3 12.2C130.3 11.1 130.7 11.3 132.9 10.9C133 11.4 132.8 11.7 132.5 11.8C133 11.7 133.4 11.5 133.7 11L134.4 11.7C136.9 12.7 137 9.69995 140 10.2C139.2 10.8 142.6 10.2 143.5 10.9C142.4 11 143.9 12.5 143.3 13.2C145.7 13.7 144.3 11.9 146.3 11.8L145.4 13.1C147.3 12.6 145.9 12.4 147.8 12C147.3 12.4 148.6 12.4 147.5 12.8C150 13 149.4 12.9 151.6 13.1L151.8 11.8C152.5 11.7 152.8 12.3 153 12.5C152.7 12.5 152.2 12.4 152.3 12.6C153.1 13.8 153.7 12 154.7 13.1C154.5 12.7 154.2 12.1 155.1 12C154.8 12.8 156.5 12.8 156.5 13.2C155.9 12.6 158.5 13 158.6 12.2C159.6 12.9 158.2 12.8 158.2 13.3C159.1 12.3 161.9 13.3 162.8 12.7C162.8 12.8 162.9 12.8 162.9 12.9C164.1 12.3 165.9 12.2 168.2 11.4L167.4 12.1C169.6 12.5 168.8 10.6 170.7 10.6C170.3 11.7 173.8 10.6 172.9 11.8C174 11.2 175.2 11 176 10.1C177 10.7 173.9 11.5 175.4 11.9L177 11.4L177.3 12C177.4 11.6 178.8 11.6 178.7 11.2C178.9 11.9 179.6 12.4 179.5 13C180.5 12.8 181.9 13.5 182.8 12.9L182.9 13.2C183.9 11.9 186 13 186.5 11.7L187.1 12.4C188.6 12.3 188.4 10.9 189.1 10.6C189.7 10.6 190.5 10.4 191.1 10.6C189.1 11.4 192.1 11.7 192.5 12.2C193.3 12.2 195.6 12.2 196.2 11.5C195.2 12.2 195.8 12.7 194.1 12.8C195 14.1 196.7 12.6 198.6 12.7V13.3C201.3 12.9 201.4 11.8 202.6 10.8C202.9 11.6 202.7 11.8 201.9 12.5C203.7 13 206.6 12.4 208.6 12.5C209.2 13 208.8 13.4 208.1 13.6C210.2 13 212.8 13.7 214.1 12.4C213.6 12.9 215 12.7 215.7 13C215.7 12.7 215.8 12.4 215.9 12.4C217.2 11.8 220 11.3 221.5 11.7L221 12.1C222.7 12.2 224 11.6 225.3 11.2C226.6 10.8 227.9 10.4 229.8 10.8C230.5 11.1 229.1 11.9 230.5 11.8C231.2 11.3 230.9 10.3 232.7 10.5L232.6 11.4L233.8 10.5C233.1 9.79996 231.2 10.1 232.5 9.29996C234.1 10.1 233.8 8.39996 235.8 9.29996C235.4 9.39996 234.8 10.1 234.5 10.5C236.5 10.9 237.9 10.6 239.3 10.4C240.7 10.1 242.1 9.79995 244.2 10.2C246.2 9.39995 248.8 8.99996 250.1 8.29996C250.1 9.19996 250.1 9.99995 249.3 10.7C251.1 10.7 251.7 8.59996 253 9.79996C253.7 8.49996 257.7 8.59996 258 6.79996L260 5.99996Z" fill="#6CD5CB"/>
<path d="M58.0998 11.0996C57.0998 11.0996 56.1998 11.0996 55.7998 11.2996C55.9998 11.4996 58.0998 11.8996 58.0998 11.0996ZM208.2 13.2996C208.1 13.2996 207.9 13.3996 207.8 13.3996C207.9 13.3996 208.1 13.3996 208.2 13.2996ZM216.3 12.8996C216.2 12.7996 216.1 12.6996 215.9 12.5996C215.9 12.8996 216 13.0996 216.3 12.8996ZM178.5 13.6996C179.2 13.2996 179.5 12.9996 179.5 12.6996C179.1 12.7996 178.8 12.9996 178.5 13.6996ZM163 12.5996C162.9 12.6996 162.8 12.6996 162.7 12.7996C163 12.6996 163 12.5996 163 12.5996ZM130.2 11.9996C130.9 11.5996 131.8 11.6996 132.6 11.4996C131.9 11.6996 130.7 11.1996 130.2 11.9996ZM226.1 11.3996L225.4 11.9996L226.2 11.5996L226.1 11.3996ZM218.6 11.9996C218.3 11.8996 216.9 12.2996 217.3 12.5996C217.7 12.2996 218.2 12.0996 218.6 11.9996ZM189.6 11.3996L189.3 11.9996L190 11.4996L189.6 11.3996Z" fill="#6CD5CB"/>
</g>
<defs>
<clipPath id="clip0_31_11">
<rect width="260" height="15.6" fill="white"/>
</clipPath>
</defs>
</svg>
